<svg width="640" height="180" viewBox="0 0 640 180" xmlns="http://www.w3.org/2000/svg" role="img" aria-labelledby="title desc">
  <title id="title">Logo Castro Multimarcas</title>
  <desc id="desc">Logotipo tipografico provisoria da Castro Multimarcas</desc>
  <defs>
    <linearGradient id="bg" x1="0" y1="0" x2="1" y2="1">
      <stop offset="0%" stop-color="#0f172a"/>
      <stop offset="100%" stop-color="#1e3a8a"/>
    </linearGradient>
  </defs>
  <rect x="0" y="0" width="640" height="180" rx="18" fill="url(#bg)"/>
  <rect x="20" y="20" width="140" height="140" rx="16" fill="#ffffff"/>
  <path d="M62 63c6-11 18-18 31-18 10 0 19 4 26 10l-11 12c-4-4-9-6-15-6-12 0-22 10-22 22s10 22 22 22c6 0 11-2 15-6l11 12c-7 6-16 10-26 10-13 0-25-7-31-18l-12 7V56l12 7z" fill="#1e3a8a"/>
  <text x="186" y="92" fill="#ffffff" font-family="Arial, Helvetica, sans-serif" font-weight="700" font-size="44" letter-spacing="1">
    CASTRO
  </text>
  <text x="188" y="130" fill="#93c5fd" font-family="Arial, Helvetica, sans-serif" font-weight="600" font-size="28" letter-spacing="2">
    MULTIMARCAS
  </text>
</svg>
